<?xml version="1.0" encoding="utf-8"?>
<!-- Generator: Adobe Illustrator 25.2.0, SVG Export Plug-In . SVG Version: 6.00 Build 0)  -->
<svg version="1.1" id="logo" xmlns="http://www.w3.org/2000/svg" xmlns:xlink="http://www.w3.org/1999/xlink" x="0px" y="0px"
	 viewBox="0 0 162 300" style="enable-background:new 0 0 162 300;" xml:space="preserve">
<style type="text/css">
	.st0{fill:#CC0000;}
	.st1{fill:#FF0000;}
	.st2{display:none;}
	.st3{display:inline;fill:#B20B0B;}
</style>
<g id="a">
	<path class="st0" d="M92.5,216.17H45.53l-8.2,26.56H0.71l52.15-142.19l16.31-44L92.5,216.17z M53.73,189.7H84.3l-15.33-49.32
		L53.73,189.7z"/>
</g>
<g id="p">
	<path class="st0" d="M88.02,179.53v63.11H70l3-186h15.02l73.64,63.11L88.02,179.53z M88.02,146.91L127.89,120L88.02,89.25V146.91z"
		/>
</g>
<g id="separateur">
	<path class="st1" d="M68.5,51.5v4.75V75v75v75v37.5l2.79,9.38c0.99,3.12,1.93,6.25,2.98,9.38c2.05,6.25,4.22,12.5,6.73,18.75
		c2.51-6.25,4.68-12.5,6.73-18.75c1.06-3.12,1.99-6.25,2.98-9.38l2.79-9.38V225v-75V75V56.25V51.5H68.5z"/>
	<path class="st1" d="M93.5,255c0-0.75,0.02-1.49,0-2.24v-9.38v-18.75v-75v-75v-37.5l-2.79-9.38c-0.99-3.12-1.93-6.25-2.98-9.38
		C85.68,12.14,83.51,5.89,81-0.36c-2.51,6.25-4.68,12.5-6.73,18.75c-1.06,3.12-1.99,6.25-2.98,9.38l-2.79,9.38v37.5v75v75v18.75
		v9.38c-0.01,0.75,0,1.49,0,2.24H93.5z"/>
</g>
<g id="trait" class="st2">
	<path class="st3" d="M81,0c2.51,6.25,4.68,12.5,6.73,18.75c1.06,3.12,1.99,6.25,2.98,9.38l2.79,9.38V75v75v75v18.75v9.38
		c0.03,1.56-0.08,3.12,0.09,4.69c0.18,1.56,0.44,3.12,0.04,4.69c-0.88,3.12-1.82,6.25-2.75,9.38c-1,3.12-1.92,6.25-3,9.38
		c-2.07,6.25-4.28,12.5-6.89,18.75c-2.61-6.25-4.82-12.5-6.89-18.75c-1.07-3.12-1.99-6.25-3-9.38c-0.93-3.12-1.87-6.25-2.75-9.38
		c-0.4-1.56-0.13-3.12,0.04-4.69c0.17-1.56,0.06-3.12,0.09-4.69v-9.38V225v-75V75V37.5l2.79-9.38c0.99-3.12,1.93-6.25,2.98-9.38
		C76.32,12.5,78.49,6.25,81,0z"/>
</g>
</svg>
